<svg width="745" height="213" fill="none" xmlns="http://www.w3.org/2000/svg"><path d="M159.852 52.304c-14.1-14.1-29.162-4.974-38.588 4.452L32.22 145.803c-9.426 9.425-19.292 23.746-4.452 38.584 14.84 14.843 29.161 4.975 38.585-4.451l89.046-89.045c9.426-9.427 18.552-24.489 4.453-38.587ZM74.78 48.657l18.855 18.854 19.192-19.192a69.875 69.875 0 0 1 3.957-3.661c-2.01-10.14-7.796-19.307-23.158-19.307-15.391 0-21.17 9.203-23.169 19.365 1.437 1.243 2.871 2.489 4.323 3.941ZM112.816 188.71l-19.18-19.181-18.845 18.843a81.041 81.041 0 0 1-4.273 3.969c2.161 10.337 8.277 19.805 23.11 19.805 14.872 0 20.98-9.519 23.127-19.889-1.319-1.135-2.639-2.248-3.939-3.547ZM66.783 94.364h-36.35C17.105 94.364 0 98.563 0 118.501c0 14.877 9.522 20.986 19.894 23.132 1.228-1.418 46.889-47.269 46.889-47.269ZM167.435 95.332c-1.15 1.338-46.907 47.305-46.907 47.305h35.834c13.329 0 30.433-3.149 30.433-24.136 0-15.389-9.2-21.171-19.36-23.169ZM78.693 82.432l6.494-6.494-18.843-18.846C56.917 47.667 42.598 37.8 27.758 52.64c-10.882 10.882-8.465 21.473-2.693 30.071 1.758-.13 53.628-.279 53.628-.279ZM108.571 154.569l-6.511 6.511 19.194 19.192c9.426 9.427 24.488 18.551 38.586 4.453 10.52-10.521 8.106-21.571 2.29-30.423-1.872.135-53.559.267-53.559.267ZM560.612 56.612c-3.219 0-8.853.805-15.026 3.488-8.048 3.488-12.341 6.171-14.487 9.658-8.05-9.389-18.514-12.341-30.319-12.341-34.612 0-59.295 29.245-59.295 70.831 0 34.88 18.781 60.637 45.343 60.637 8.048 0 15.293-3.221 23.88-11.268 6.706-6.172 9.927-10.195 9.927-13.952 0-2.684-1.878-4.562-4.562-4.562-3.757 0-7.781 3.219-12.879 3.219-11.001 0-18.514-16.904-18.514-41.856 0-24.951 9.927-41.854 24.952-41.854 9.927 0 17.44 7.511 17.44 20.391v78.345c0 8.584 8.048 10.999 22.805 10.999 14.49 0 20.123-2.683 20.123-10.999V65.199c.003-5.368-3.485-8.587-9.388-8.587ZM395.071 56.612c-10.464 0-21.464 3.757-31.125 11.269-5.365 4.293-9.927 9.122-9.927 13.147 0 3.487 2.414 5.365 5.903 5.365 5.904 0 7.782-2.414 13.416-2.414s8.317 5.366 8.317 14.757v78.614c0 8.584 8.05 10.999 22.805 10.999 14.489 0 20.123-2.683 20.123-10.999V91.223c0-20.392-12.073-34.611-29.512-34.611ZM319.677 56.612c-11 0-20.928 3.757-30.586 11.269-5.366 4.293-9.927 9.122-9.927 13.147 0 3.487 2.413 5.365 5.903 5.365 5.901 0 7.781-2.414 12.879-2.414s7.781 5.366 7.781 14.757v78.614c0 8.584 8.048 10.999 22.804 10.999 14.49 0 20.123-2.683 20.123-10.999V91.223c-.001-20.392-12.075-34.611-28.977-34.611ZM263.333 56.612c-4.024 0-8.853.805-15.026 3.488-13.415 5.903-18.512 9.658-18.512 17.976v99.273c0 8.584 8.048 10.999 22.805 10.999 14.489 0 20.123-2.683 20.123-10.999V65.199c.001-5.368-3.487-8.587-9.39-8.587ZM735.278 152.127c-10.733 2.683-13.951 3.488-17.709 3.488-4.56 0-6.171-1.342-6.171-6.171V82.368h24.417c6.439 0 8.853-2.414 8.853-8.853 0-5.366-2.414-8.051-8.853-8.051h-24.417V39.439c0-8.05-2.681-11.269-8.317-11.269-5.365 0-12.879 4.83-28.976 18.514-16.365 13.952-25.758 23.074-25.758 29.513 0 3.757 2.685 6.171 6.977 6.171h13.147v72.442c0 21.197 10.463 33.538 28.708 33.538 12.074 0 20.928-4.562 31.392-12.61 9.659-7.513 15.829-13.416 15.829-18.512 0-4.293-3.219-6.709-9.122-5.099ZM626.616 0c-2.146 0-8.853.805-15.026 3.488-13.416 5.634-18.512 9.658-18.512 17.976v155.884c0 8.587 8.048 11.001 22.805 11.001 14.49 0 20.122-2.683 20.122-11.001V8.586c0-5.367-3.487-8.586-9.389-8.586Z" fill="#FC5656"/></svg>