<svg version="1.2" xmlns="http://www.w3.org/2000/svg" viewBox="0 0 1400 475" width="1400" height="475">
	<title>WordPress-logotype-standard-ai</title>
	<style>
		.s0 { fill: #32373c } 
	</style>
	<g id="WordPress">
		<g id="Logotype">
			<g id="Wordmark">
				<path id="&lt;Compound Path&gt;" fill-rule="evenodd" class="s0" d="m833.2 249.5c0 24-16.4 44-54.1 44h-76.7l-29.3-36.6h-4.4v9.4c0 18.8 2.3 22.2 17.1 22.2v5h-52.5v-5c14.8 0 17.2-3.4 17.2-22.2v-33.7c0-18.7-2.4-21.9-17.2-21.9v-5h46.4c23.2 0 35.6 11.1 35.6 25.6 0 11.6-8.7 21.9-25 24.8l12.1 13.1c10.6 11.6 18.2 17.7 29.5 19.3 14.8 0 17.2-3.4 17.2-22.2v-33.7c0-18.7-2.4-21.9-17.2-21.9v-5h47.2c37.7 0 54.1 19.8 54.1 43.8zm-153.7-0.8c11.8 0 17.1-8.2 17.1-17.4 0-9.5-5.3-17.7-17.1-17.7h-10.8v35.1zm132.8 0.5c0-15.5-5-35.6-32.4-35.6q-1 0-12.6 0v57.2c0 12.2 1.3 14.5 10.8 14.5h1.8c27.4 0 32.4-20 32.4-36.1z"/>
				<path id="&lt;Compound Path&gt;" class="s0" d="m486.5 258.4l18.2-53.8c5.3-15.5 2.9-20-14-20v-5.3h49.6v5.3c-16.6 0-20.6 4-27.2 23.2l-30 90.2h-3.5l-26.9-82.5-27.4 82.5h-3.4l-29.3-90.2c-6.3-19.2-10.5-23.2-25.8-23.2v-5.3h58.5v5.3c-15.5 0-19.7 3.7-14.2 20l17.7 53.8 26.6-79.1h5z"/>
				<path id="&lt;Compound Path&gt;" fill-rule="evenodd" class="s0" d="m576.1 296.9c-29 0-52.7-21.3-52.7-47.4 0-25.9 23.7-47.2 52.7-47.2 29 0 52.8 21.3 52.8 47.2 0 26.1-23.8 47.4-52.8 47.4zm0-86.4c-24.2 0-32.7 21.8-32.7 39 0 17.4 8.5 39 32.7 39 24.5 0 33-21.6 33-39 0-17.2-8.5-39-33-39z"/>
				<path id="&lt;Compound Path&gt;" fill-rule="evenodd" class="s0" d="m898.3 288.2v5.3h-60.4v-5.3c17.7 0 20.9-4.5 20.9-30.8v-42.2c0-26.4-3.2-30.6-20.9-30.6v-5.3h54.6c27.2 0 42.2 14 42.2 32.7 0 18.2-15 32.5-42.2 32.5h-15v12.9c0 26.3 3.1 30.8 20.8 30.8zm-5.8-99.4h-15v45.9h15c14.8 0 21.6-10.3 21.6-22.7 0-12.6-6.8-23.2-21.6-23.2z"/>
				<path id="&lt;Compound Path&gt;" fill-rule="evenodd" class="s0" d="m1119.8 268.7l-1.6 24.8h-108.4l-29.2-36.6h-4.5v9.4c0 18.8 2.4 22.2 17.1 22.2v5h-52.5v-5c14.8 0 17.2-3.4 17.2-22.2v-33.7c0-18.7-2.4-21.9-17.2-21.9v-5h46.5c23.2 0 35.5 11.1 35.5 25.6 0 11.6-8.7 21.9-25 24.8l12.1 13.1c10.4 11.5 18 17.5 29.1 19.2 11.6-0.6 13.6-4.9 13.6-22.1v-33.7c0-18.7-2.3-21.9-17.1-21.9v-5h77.5l1.9 24.8h-4.3l-1.3-5c-2.4-8.7-5.3-11.9-24-11.9h-14.5v29.5c20.6 0 22.2-1.8 22.2-15.5h5v39.3h-5c0-13.7-1.6-15.6-22.2-15.6v12.1c0 18.8 2.4 21.9 16.1 21.9h3.7c18.7 0 21.6-3.1 24-11.8l1.3-4.8zm-132.9-20c11.9 0 17.2-8.2 17.2-17.4 0-9.5-5.3-17.7-17.2-17.7h-10.8v35.1z"/>
				<path id="&lt;Compound Path&gt;" class="s0" d="m1169.3 296.9c-10.5 0-19.7-5.5-23.7-8.9-1.3 1.3-3.7 5.2-4.2 8.9h-5v-36.4h5.2c2.2 17.4 14.3 27.7 29.8 27.7 8.5 0 15.3-4.7 15.3-12.6 0-6.9-6-12.2-16.8-17.2l-15.1-7.1c-10.5-5-18.4-13.7-18.4-25.3 0-12.6 11.8-23.5 28.2-23.5 8.7 0 16.1 3.2 20.5 6.9 1.4-1.1 2.7-4 3.5-7.1h5v31.1h-5.6c-1.8-12.4-8.7-22.7-22.6-22.7-7.4 0-14.3 4.2-14.3 10.8 0 6.9 5.6 10.6 18.2 16.4l14.5 7.1c12.7 6.1 17.7 15.8 17.7 23.7 0 16.6-14.5 28.2-32.2 28.2z"/>
				<path id="&lt;Compound Path&gt;" class="s0" d="m1249 296.9c-10.5 0-19.7-5.5-23.7-8.9-1.3 1.3-3.7 5.2-4.2 8.9h-5v-36.4h5.3c2.1 17.4 14.2 27.7 29.8 27.7 8.4 0 15.2-4.7 15.2-12.6 0-6.9-6-12.2-16.8-17.2l-15.1-7.1c-10.5-5-18.4-13.7-18.4-25.3 0-12.6 11.9-23.5 28.2-23.5 8.7 0 16.1 3.2 20.6 6.9 1.3-1.1 2.6-4 3.4-7.1h5v31.1h-5.5c-1.9-12.4-8.7-22.7-22.7-22.7-7.4 0-14.2 4.2-14.2 10.8 0 6.9 5.5 10.6 18.1 16.4l14.5 7.1c12.7 6.1 17.7 15.8 17.7 23.7 0 16.6-14.5 28.2-32.2 28.2z"/>
			</g>
			<g id="W Mark">
				<path id="&lt;Compound Path&gt;" fill-rule="evenodd" class="s0" d="m354.9 236.3c0 65.5-53.1 118.6-118.6 118.6-65.5 0-118.7-53.1-118.7-118.6 0-65.5 53.2-118.7 118.7-118.7 65.5 0 118.6 53.2 118.6 118.7zm-162-102.8c-6.6 2.8-13 6.3-19 10.3-5.9 4-11.4 8.6-16.5 13.6-5 5.1-9.6 10.6-13.6 16.5-4 6-7.5 12.4-10.3 19-5.8 13.7-8.7 28.3-8.7 43.4 0 15 2.9 29.7 8.7 43.4 2.8 6.6 6.3 13 10.3 18.9 4 5.9 8.6 11.5 13.6 16.5 5.1 5.1 10.6 9.7 16.5 13.7 6 4 12.4 7.5 19 10.3 13.7 5.8 28.3 8.7 43.4 8.7 15 0 29.7-2.9 43.4-8.7 6.6-2.8 13-6.3 18.9-10.3 5.9-4 11.5-8.6 16.5-13.7 5.1-5 9.7-10.6 13.7-16.5 4-5.9 7.5-12.3 10.3-18.9 5.8-13.7 8.7-28.4 8.7-43.4 0-15.1-2.9-29.7-8.7-43.4-2.8-6.6-6.3-13-10.3-19-4-5.9-8.6-11.4-13.7-16.5-5-5-10.6-9.6-16.5-13.6-5.9-4-12.3-7.5-18.9-10.3-13.7-5.8-28.4-8.7-43.4-8.7-15.1 0-29.7 2.9-43.4 8.7z"/>
				<path id="&lt;Compound Path&gt;" class="s0" d="m146 196l47.1 129.3c-32.9-16.1-55.7-49.9-55.7-89 0-14.3 3.1-28 8.6-40.3zm149.8 67.9l-10.2 32.3-35.7-106.3q6-0.3 11.3-0.9c5.4-0.6 4.7-8.5-0.6-8.2q-16 1.3-26.4 1.3-9.7 0-26-1.3c-5.3-0.3-5.9 7.9-0.6 8.2q5 0.6 10.4 0.9l15.4 42.2-21.7 64.9-36-107.1q6-0.3 11.3-0.9c5.4-0.6 4.7-8.5-0.6-8.2q-16 1.3-26.4 1.3c-1.8 0-4 0-6.3-0.1 17.7-26.9 48-44.6 82.6-44.6 25.7 0 49.2 9.9 66.8 26-0.5-0.1-0.9-0.1-1.3-0.1-9.7 0-16.6 8.5-16.6 17.5 0 8.2 4.7 15.1 9.7 23.2 3.7 6.6 8.1 15.1 8.1 27.3 0 8.5-2.6 18.5-7.2 32.6zm-27.4 64.3q0.3 0.7 0.7 1.4c-10.3 3.6-21.3 5.6-32.8 5.6-9.7 0-19.1-1.5-27.9-4.1l29.6-86.2zm66.8-91.9c0 36.5-19.8 68.3-49.2 85.5l30.2-87.3c5.6-14.1 7.5-25.4 7.5-35.4 0-3.7-0.2-7.1-0.6-10.2 7.7 14.1 12.1 30.2 12.1 47.4z"/>
			</g>
		</g>
	</g>
</svg>