<svg version="1.2" xmlns="http://www.w3.org/2000/svg" viewBox="0 0 1400 475" width="1400" height="475">
	<title>WordPress-logotype-standard_v2-svg</title>
	<style>
		.s0 { fill: #fcf3f3 } 
	</style>
	<g id="WordPress">
		<g id="Logotype">
			<g id="Wordmark">
				<path id="&lt;Compound Path&gt;" fill-rule="evenodd" class="s0" d="m857.9 251.9c0 28.5-19.5 52.3-64.2 52.3h-91.1l-34.8-43.5h-5.3v11.2c0 22.3 2.8 26.3 20.3 26.3v6h-62.3v-6c17.6 0 20.4-4 20.4-26.3v-40.1c0-22.2-2.8-26-20.4-26v-5.9h55.1c27.6 0 42.3 13.2 42.3 30.4 0 13.8-10.3 26-29.7 29.4l14.4 15.6c12.6 13.8 21.6 21 35 22.9 17.6 0 20.4-4 20.4-26.3v-40.1c0-22.2-2.8-26-20.4-26v-5.9h56.1c44.7 0 64.2 23.5 64.2 52zm-182.5-0.9c14 0 20.3-9.8 20.3-20.7 0-11.3-6.3-21-20.3-21h-12.9v41.7zm157.8 0.5c0-18.4-6-42.2-38.5-42.2q-1.2 0-15 0v67.9c0 14.5 1.6 17.2 12.8 17.2h2.2c32.5 0 38.5-23.7 38.5-42.9z"/>
				<path id="&lt;Compound Path&gt;" class="s0" d="m446.1 262.5l21.7-63.9c6.3-18.4 3.4-23.8-16.7-23.8v-6.3h58.9v6.3c-19.7 0-24.4 4.8-32.3 27.6l-35.6 107.1h-4.2l-31.9-98-32.5 98h-4.1l-34.8-107.1c-7.5-22.8-12.5-27.6-30.6-27.6v-6.3h69.5v6.3c-18.5 0-23.4 4.4-16.9 23.8l21 63.9 31.6-94h5.9z"/>
				<path id="&lt;Compound Path&gt;" fill-rule="evenodd" class="s0" d="m552.6 308.2c-34.6 0-62.6-25.1-62.6-56.2 0-31 28-56.2 62.6-56.2 34.7 0 62.7 25.2 62.7 56.2 0 31.1-28 56.2-62.7 56.2zm0-102.6c-28.8 0-38.9 25.9-38.9 46.3 0 20.7 10.1 46.3 38.9 46.3 29.1 0 39.2-25.6 39.2-46.3 0-20.4-10.1-46.3-39.2-46.3z"/>
				<path id="&lt;Compound Path&gt;" fill-rule="evenodd" class="s0" d="m935.2 297.9v6.3h-71.7v-6.3c21 0 24.8-5.4 24.8-36.6v-50.1c0-31.4-3.8-36.4-24.8-36.4v-6.3h64.8c32.3 0 50.2 16.7 50.2 38.9 0 21.6-17.9 38.6-50.2 38.6h-17.8v15.3c0 31.2 3.7 36.6 24.7 36.6zm-6.9-118.1h-17.8v54.5h17.8c17.6 0 25.7-12.2 25.7-26.9 0-15-8.1-27.6-25.7-27.6z"/>
				<path id="&lt;Compound Path&gt;" fill-rule="evenodd" class="s0" d="m1198.3 274.7l-1.9 29.5h-128.7l-34.7-43.5h-5.4v11.2c0 22.3 2.9 26.3 20.3 26.3v6h-62.3v-6c17.6 0 20.4-4 20.4-26.3v-40.1c0-22.2-2.8-26-20.4-26v-5.9h55.2c27.6 0 42.2 13.2 42.2 30.4 0 13.8-10.4 26-29.7 29.4l14.4 15.6c12.3 13.7 21.3 20.8 34.5 22.8 13.8-0.7 16.2-5.8 16.2-26.2v-40.1c0-22.2-2.8-26-20.3-26v-5.9h92l2.3 29.4h-5.1l-1.6-5.9c-2.8-10.3-6.3-14.1-28.5-14.1h-17.2v35c24.5 0 26.4-2.1 26.4-18.4h5.9v46.7h-5.9c0-16.3-1.9-18.6-26.4-18.6v14.4c0 22.3 2.8 26 19.1 26h4.4c22.2 0 25.7-3.7 28.5-14l1.6-5.7zm-157.9-23.7c14.1 0 20.4-9.8 20.4-20.7 0-11.3-6.3-21-20.4-21h-12.8v41.7z"/>
				<path id="&lt;Compound Path&gt;" class="s0" d="m1257.1 308.2c-12.5 0-23.4-6.5-28.2-10.6-1.5 1.6-4.3 6.2-4.9 10.6h-6v-43.2h6.2c2.6 20.6 17 32.9 35.4 32.9 10.1 0 18.2-5.6 18.2-15 0-8.2-7.2-14.5-20-20.4l-17.9-8.5c-12.5-5.9-21.9-16.2-21.9-30 0-15 14-27.9 33.5-27.9 10.3 0 19.1 3.8 24.4 8.2 1.6-1.3 3.2-4.8 4.1-8.5h6v37h-6.7c-2.1-14.7-10.3-27-26.8-27-8.8 0-17 5-17 12.8 0 8.2 6.6 12.6 21.6 19.5l17.2 8.5c15.1 7.2 21 18.7 21 28.1 0 19.7-17.2 33.5-38.2 33.5z"/>
				<path id="&lt;Compound Path&gt;" class="s0" d="m1351.8 308.2c-12.5 0-23.4-6.5-28.2-10.6-1.5 1.6-4.4 6.2-5 10.6h-5.9v-43.2h6.3c2.5 20.6 16.8 32.9 35.4 32.9 9.9 0 18-5.6 18-15 0-8.2-7.1-14.5-19.9-20.4l-18-8.5c-12.4-5.9-21.8-16.2-21.8-30 0-15 14.1-27.9 33.5-27.9 10.3 0 19.1 3.8 24.4 8.2 1.6-1.3 3.1-4.8 4.1-8.5h5.9v37h-6.5c-2.3-14.7-10.3-27-27-27-8.8 0-16.8 5-16.8 12.8 0 8.2 6.5 12.6 21.5 19.5l17.2 8.5c15.1 7.2 21 18.7 21 28.1 0 19.7-17.2 33.5-38.2 33.5z"/>
			</g>
			<g id="W Mark">
				<path id="&lt;Compound Path&gt;" fill-rule="evenodd" class="s0" d="m148.9 377.1c-77.9 0-140.9-63-140.9-140.9 0-78 63-141 140.9-141 77.9 0 140.9 63 140.9 141 0 77.9-63 140.9-140.9 140.9zm-51.5-263c-7.8 3.4-15.4 7.5-22.5 12.3-7 4.7-13.6 10.2-19.6 16.1-6 6.1-11.4 12.6-16.2 19.6-4.7 7.1-8.9 14.7-12.2 22.6-6.9 16.3-10.3 33.6-10.3 51.5 0 17.8 3.4 35.3 10.3 51.6 3.3 7.8 7.5 15.4 12.2 22.4 4.8 7 10.2 13.7 16.2 19.6 6 6.1 12.6 11.5 19.6 16.3 7.1 4.7 14.7 8.9 22.5 12.2 16.3 6.9 33.6 10.4 51.6 10.4 17.8 0 35.3-3.5 51.5-10.4 7.9-3.3 15.5-7.5 22.5-12.2 7-4.8 13.6-10.2 19.6-16.3 6-5.9 11.5-12.6 16.2-19.6 4.8-7 8.9-14.6 12.3-22.4 6.9-16.3 10.3-33.8 10.3-51.6 0-17.9-3.4-35.2-10.3-51.5-3.4-7.9-7.5-15.5-12.3-22.6-4.7-7-10.2-13.5-16.2-19.6-6-5.9-12.6-11.4-19.6-16.1-7-4.8-14.6-8.9-22.5-12.3-16.2-6.9-33.7-10.3-51.5-10.3-18 0-35.3 3.4-51.6 10.3z"/>
				<path id="&lt;Compound Path&gt;" class="s0" d="m41.7 188.4l56 153.5c-39.1-19.1-66.2-59.2-66.2-105.7 0-17 3.7-33.2 10.2-47.8zm177.9 80.6l-12.1 38.4-42.4-126.3q7.2-0.3 13.5-1.1c6.4-0.7 5.5-10-0.8-9.7q-19 1.6-31.3 1.6-11.5 0-30.9-1.6c-6.3-0.3-7 9.4-0.7 9.7q5.9 0.8 12.3 1.1l18.3 50.1-25.7 77.1-42.8-127.2q7.1-0.3 13.4-1.1c6.4-0.7 5.6-10-0.7-9.7q-19 1.6-31.3 1.6c-2.2 0-4.8 0-7.5-0.2 21-31.9 57-52.9 98.1-52.9 30.5 0 58.4 11.7 79.3 30.8-0.6-0.1-1.1-0.1-1.5-0.1-11.5 0-19.7 10.1-19.7 20.8 0 9.7 5.5 17.9 11.5 27.6 4.4 7.8 9.6 17.9 9.6 32.4 0 10.1-3.1 22-8.6 38.7zm-32.5 76.4q0.4 0.8 0.8 1.6c-12.2 4.3-25.3 6.7-38.9 6.7-11.5 0-22.7-1.8-33.2-4.9l35.2-102.4zm79.3-109.1c0 43.3-23.5 81.1-58.4 101.5l35.9-103.6c6.6-16.8 8.9-30.2 8.9-42.1q0-6.6-0.7-12.1c9.1 16.7 14.3 35.9 14.3 56.3z"/>
			</g>
		</g>
	</g>
</svg>